<?xml version="1.0" encoding="utf-8"?>
<!-- Generator: Adobe Illustrator 21.0.0, SVG Export Plug-In . SVG Version: 6.00 Build 0)  -->
<svg version="1.1" id="Layer_1" xmlns="http://www.w3.org/2000/svg" xmlns:xlink="http://www.w3.org/1999/xlink" x="0px" y="0px"
	 viewBox="0 0 119.1 106.7" style="enable-background:new 0 0 119.1 106.7;" xml:space="preserve">
<g>
	<path d="M116.2,0H32.2c-1.6,0-2.9,1.3-2.9,2.9c0,1.6,1.3,2.9,2.9,2.9h81.2v95.1H32.2c-1.6,0-2.9,1.3-2.9,2.9c0,1.6,1.3,2.9,2.9,2.9
		h84.1c1.6,0,2.9-1.3,2.9-2.9V2.9C119.1,1.3,117.8,0,116.2,0L116.2,0z M116.2,0"/>
	<path d="M43.9,70.8c-1.1,1.1-1.1,3,0,4.1c0.6,0.6,1.3,0.8,2,0.8c0.7,0,1.5-0.3,2-0.8l17.8-17.8c1.1-1.1,1.1-3,0-4.1L48,35.3
		c-1.1-1.1-2.9-1.1-4.1,0c-1.1,1.1-1.1,2.9,0,4.1l12.9,12.9H2.9c-1.6,0-2.9,1.3-2.9,2.9C0,56.7,1.3,58,2.9,58h53.9L43.9,70.8z
		 M43.9,70.8"/>
</g>
</svg>
