<?xml version="1.0" encoding="utf-8"?>
<!-- Generator: Adobe Illustrator 21.0.0, SVG Export Plug-In . SVG Version: 6.00 Build 0)  -->
<svg version="1.1" id="Layer_1" xmlns="http://www.w3.org/2000/svg" xmlns:xlink="http://www.w3.org/1999/xlink" x="0px" y="0px"
	 viewBox="0 0 89.6 66" style="enable-background:new 0 0 89.6 66;" xml:space="preserve">
<path d="M86.6,6H3C1.3,6,0,4.6,0,3v0c0-1.6,1.3-3,3-3h83.6c1.6,0,3,1.3,3,3v0C89.6,4.6,88.2,6,86.6,6z"/>
<path d="M86.6,36H3c-1.6,0-3-1.3-3-3v0c0-1.6,1.3-3,3-3h83.6c1.6,0,3,1.3,3,3v0C89.6,34.6,88.2,36,86.6,36z"/>
<path d="M86.6,66H3c-1.6,0-3-1.3-3-3v0c0-1.6,1.3-3,3-3h83.6c1.6,0,3,1.3,3,3v0C89.6,64.6,88.2,66,86.6,66z"/>
</svg>
